<svg id="Layer_1" data-name="Layer 1" xmlns="http://www.w3.org/2000/svg" width="2040" height="395.5" viewBox="0 0 2040 395.5"><defs><style>.cls-1,.cls-2,.cls-3,.cls-4,.cls-5,.cls-6,.cls-9{stroke:#000;}.cls-1,.cls-5,.cls-6{stroke-miterlimit:10;}.cls-2{stroke-miterlimit:10.01;stroke-width:1px;}.cls-3{stroke-miterlimit:10;}.cls-4{stroke-miterlimit:10;}.cls-5{stroke-width:0.88px;}.cls-6{stroke-width:1.46px;}.cls-7{isolation:isolate;}.cls-8{fill:#fff;}.cls-9{stroke-miterlimit:9.96;stroke-width:1px;}</style></defs><rect class="cls-1" x="25.5" y="157.5" width="220" height="59"/><rect class="cls-2" x="25.7" y="224.6" width="220.2" height="22" transform="translate(-9.31 5.62) rotate(-2.29)"/><rect class="cls-3" x="116.51" y="171.51" width="38" height="219.99" transform="translate(-151.97 403.85) rotate(-87.35)"/><rect class="cls-1" x="24.5" y="312.03" width="220" height="78"/><rect class="cls-3" x="144.51" y="209.51" width="303.99" height="62" transform="translate(42.55 525.57) rotate(-87.35)"/><rect class="cls-1" x="336.5" y="37.5" width="58" height="355"/><rect class="cls-1" x="1653.5" y="136.5" width="46" height="258"/><rect class="cls-1" x="1608.5" y="99.5" width="34" height="295"/><rect class="cls-1" x="1582.5" y="157.5" width="15" height="237"/><rect class="cls-1" x="1542.5" y="199.5" width="32" height="195"/><rect class="cls-1" x="1477.5" y="145.5" width="58" height="249"/><rect class="cls-1" x="1455.5" y="167.5" width="17" height="227"/><rect class="cls-4" x="1429.47" y="69.5" width="14" height="324.99" transform="translate(-8.03 56.83) rotate(-2.26)"/><rect class="cls-1" x="1368.5" y="14.5" width="46" height="380"/><rect class="cls-1" x="1326.5" y="70.5" width="31" height="325"/><rect class="cls-5" x="410.5" y="126.5" width="696" height="82"/><rect class="cls-6" x="410.2" y="217" width="911" height="174"/><g class="cls-7"><path class="cls-8" d="M431.2,359.2V245h23.4v91.5h53v22.7Z"/><path class="cls-8" d="M629,325a59.86,59.86,0,0,1-11.8,18.8A56.27,56.27,0,0,1,554,356.5a55.33,55.33,0,0,1-17.8-12.6,57.58,57.58,0,0,1-11.7-18.6,62.11,62.11,0,0,1-4.2-22.9v-.3a61.73,61.73,0,0,1,4.2-22.9,59.86,59.86,0,0,1,11.8-18.8,56.27,56.27,0,0,1,63.2-12.7,55.33,55.33,0,0,1,17.8,12.6A57.58,57.58,0,0,1,629,278.9a62.11,62.11,0,0,1,4.2,22.9v.3A58,58,0,0,1,629,325Zm-20.1-22.9a40.22,40.22,0,0,0-2.4-13.9,35,35,0,0,0-6.7-11.4,33.5,33.5,0,0,0-10.2-7.7,30.85,30.85,0,0,0-25.9-.1,30.16,30.16,0,0,0-10,7.7,35.15,35.15,0,0,0-6.5,11.3,39.25,39.25,0,0,0-2.4,13.8v.3a40.22,40.22,0,0,0,2.4,13.9,34,34,0,0,0,6.7,11.4,35.51,35.51,0,0,0,10.2,7.8,30.19,30.19,0,0,0,36-7.6,35.15,35.15,0,0,0,6.5-11.3,39.25,39.25,0,0,0,2.4-13.8v-.4Z"/><path class="cls-8" d="M741.7,332.1a44.6,44.6,0,0,1-9.3,16.1,37.59,37.59,0,0,1-14.7,9.6,55.8,55.8,0,0,1-19.3,3.2c-14.3,0-25.5-4.2-33.7-12.7s-12.3-21.2-12.3-38V245h23.4v64.6c0,9.4,2,16.4,6.1,21.1s9.7,7.1,16.8,7.1,12.8-2.3,16.8-6.9,6.1-11.4,6.1-20.6V245H745v64.4C745,318.2,743.9,325.7,741.7,332.1Z"/><path class="cls-8" d="M769.8,359.2V245h23.4V359.2Z"/><path class="cls-8" d="M893.7,340.5a31,31,0,0,1-8,11.1,35.56,35.56,0,0,1-12.2,6.9,49,49,0,0,1-15.8,2.4,65.67,65.67,0,0,1-23.8-4.5,61.58,61.58,0,0,1-21.2-13.8l13.8-17.8a71.29,71.29,0,0,0,14.9,10.1,37.68,37.68,0,0,0,16.8,3.8c4.9,0,8.6-1,11.3-2.9a9,9,0,0,0,4-7.9v-.3a11.37,11.37,0,0,0-.8-4.3,9.38,9.38,0,0,0-3.2-3.5,35.3,35.3,0,0,0-6.5-3.3,104.63,104.63,0,0,0-10.9-3.4,132.34,132.34,0,0,1-14.6-4.7,39.48,39.48,0,0,1-11.1-6.4,27,27,0,0,1-7.1-9.5c-1.7-3.8-2.5-8.5-2.5-14.2V278a35.45,35.45,0,0,1,2.7-14.1,30.68,30.68,0,0,1,7.6-10.8,34.42,34.42,0,0,1,11.7-7,44.53,44.53,0,0,1,15-2.4,60,60,0,0,1,21.5,3.8,61.62,61.62,0,0,1,18,10.8l-12.1,18.9a73.62,73.62,0,0,0-14-8.2,33.91,33.91,0,0,0-13.7-3c-4.6,0-8,1-10.2,2.9a8.85,8.85,0,0,0-3.4,7.1v.3a10,10,0,0,0,1,4.8,9,9,0,0,0,3.6,3.7,32.41,32.41,0,0,0,7.1,3.1c3,1,6.8,2.1,11.3,3.4a99.94,99.94,0,0,1,14.4,5.1,37.38,37.38,0,0,1,10.6,6.9,25.27,25.27,0,0,1,6.5,9.4,35.49,35.49,0,0,1,2.2,12.9v.3A38.78,38.78,0,0,1,893.7,340.5Z"/><path class="cls-8" d="M917.9,359.2V245h23.4V359.2Z"/><path class="cls-8" d="M1046.9,359.2l-9.7-25.6H992.3l-9.7,25.6H958.8l45.5-115h21.5l45.5,115Zm-32.2-84.8-14.1,37h28.2Z"/><path class="cls-8" d="M1162.2,359.2l-51.4-72.6v72.6h-23.1V245h21.5l49.8,70.3V245h23.1V359.2Z"/><path class="cls-8" d="M1286.6,359.2l-9.7-25.6H1232l-9.7,25.6h-23.8l45.5-115h21.5l45.5,115Zm-32.1-84.8-14.1,37h28.2Z"/></g><g class="cls-7"><path class="cls-8" d="M465.3,188.3a22.75,22.75,0,0,1-4.4,3,22.2,22.2,0,0,1-5.3,1.9,31,31,0,0,1-6.4.6,23.9,23.9,0,0,1-10-2.1,25.39,25.39,0,0,1-8-5.7,25.72,25.72,0,0,1-5.2-8.6,28.51,28.51,0,0,1-1.9-10.6v-.1a27.62,27.62,0,0,1,1.9-10.5,28.65,28.65,0,0,1,5.2-8.6,23.73,23.73,0,0,1,18.3-8,29,29,0,0,1,6.2.6,30.66,30.66,0,0,1,5.1,1.6,30.21,30.21,0,0,1,4.3,2.5,28.19,28.19,0,0,1,3.6,3.3l-6.8,8.5a24.84,24.84,0,0,0-5.8-4.3,13.55,13.55,0,0,0-6.7-1.6,12.53,12.53,0,0,0-5.7,1.3,15.2,15.2,0,0,0-4.5,3.5,15.53,15.53,0,0,0-2.9,5.2,18.9,18.9,0,0,0-1,6.3v.1a19.49,19.49,0,0,0,1,6.4,16.33,16.33,0,0,0,2.9,5.2,13.28,13.28,0,0,0,4.5,3.6,12.37,12.37,0,0,0,5.8,1.3,14.33,14.33,0,0,0,7.1-1.6,31.47,31.47,0,0,0,5.8-4.5l6.8,7.4A35.85,35.85,0,0,1,465.3,188.3Z"/><path class="cls-8" d="M508.3,192.9V171.8H488.5v21.1H477.8V140.4h10.7v20.8h19.8V140.4H519v52.5Z"/><path class="cls-8" d="M531.3,192.9V140.4H542v52.5Z"/><path class="cls-8" d="M554.2,192.9V140.4h10.7v42.1h24.3v10.4Z"/><path class="cls-8" d="M640.5,177a24.6,24.6,0,0,1-5.3,8.3,24.89,24.89,0,0,1-8.2,5.6,25.87,25.87,0,0,1-10.5,2h-19V140.4h19a27.66,27.66,0,0,1,10.5,2,24.64,24.64,0,0,1,8.2,5.5,24.06,24.06,0,0,1,5.3,8.3,27,27,0,0,1,1.9,10.3v.1A29.56,29.56,0,0,1,640.5,177Zm-9.4-10.4a19.11,19.11,0,0,0-1.1-6.4,14.18,14.18,0,0,0-7.6-8.3,14.61,14.61,0,0,0-6-1.2h-8.3v31.7h8.3a16.43,16.43,0,0,0,6-1.1,11.58,11.58,0,0,0,4.6-3.2,13.91,13.91,0,0,0,3-5,18.26,18.26,0,0,0,1.1-6.4Z"/><path class="cls-8" d="M681.6,192.9l-10.5-16.8h-8.4v16.8H652V140.4h22.3c5.8,0,10.3,1.5,13.6,4.6s4.8,7.3,4.8,12.8v.1a17.53,17.53,0,0,1-2.9,10.4,17.1,17.1,0,0,1-7.6,5.9L694.1,193H681.6Zm.2-34.6c0-2.5-.7-4.4-2.2-5.6a9.75,9.75,0,0,0-6.2-1.9H662.7v15.1h10.9a8.61,8.61,0,0,0,6.1-2,7.16,7.16,0,0,0,2.1-5.4v-.2Z"/><path class="cls-8" d="M702.3,192.9V140.4h36.8v10.3H712.9v10.6h23v10.3h-23v11h26.5v10.3Z"/><path class="cls-8" d="M783.3,192.9l-23.6-33.4v33.4H749.1V140.4H759l22.9,32.3V140.4h10.6v52.5Z"/><path class="cls-8" d="M807.2,152.4H803v-12h11.2v10.1c0,5-1.1,8.5-3.3,10.7s-5.4,3.3-9.6,3.3l-.9-4.7C805.3,159.3,807.6,156.8,807.2,152.4Z"/><path class="cls-8" d="M858.1,184.3a14.57,14.57,0,0,1-3.7,5.1,15.29,15.29,0,0,1-5.6,3.1,23.62,23.62,0,0,1-7.2,1.1,30,30,0,0,1-20.8-8.4l6.3-8.2a30.15,30.15,0,0,0,6.9,4.7,16.43,16.43,0,0,0,7.7,1.7,8.7,8.7,0,0,0,5.2-1.3,4.28,4.28,0,0,0,1.8-3.6v-.1a4.21,4.21,0,0,0-.4-2,3.75,3.75,0,0,0-1.5-1.6,13.83,13.83,0,0,0-3-1.5c-1.3-.5-2.9-1-5-1.6a47.88,47.88,0,0,1-6.7-2.2,18.08,18.08,0,0,1-5.1-3,12.16,12.16,0,0,1-3.3-4.4,15.4,15.4,0,0,1-1.2-6.5v-.1a16.74,16.74,0,0,1,1.2-6.5,14.67,14.67,0,0,1,8.9-8.2,19.22,19.22,0,0,1,6.9-1.1,28.56,28.56,0,0,1,9.9,1.7,30.28,30.28,0,0,1,8.3,4.9l-5.6,8.7a33.56,33.56,0,0,0-6.4-3.8,16,16,0,0,0-6.3-1.4c-2.1,0-3.7.4-4.7,1.3a4.37,4.37,0,0,0-1.6,3.3v.1a4.77,4.77,0,0,0,.5,2.2,4.25,4.25,0,0,0,1.6,1.7,13,13,0,0,0,3.3,1.4c1.4.4,3.1,1,5.2,1.6a41.79,41.79,0,0,1,6.6,2.4,19.58,19.58,0,0,1,4.9,3.1,12.85,12.85,0,0,1,3,4.3,14.87,14.87,0,0,1,1,5.9v.1A14.39,14.39,0,0,1,858.1,184.3Z"/><path class="cls-8" d="M943.3,193.3H934l-11-34.4-11,34.4h-9.3L886,140.4h11.5l10.1,35.5,11-35.7h9.2l11,35.7,10.1-35.5H960Z"/><path class="cls-8" d="M968.4,192.9V140.4h10.7v52.5Z"/><path class="cls-8" d="M1025.6,192.9,1002,159.5v33.4H991.4V140.4h9.9l22.9,32.3V140.4h10.6v52.5Z"/><path class="cls-8" d="M1081.9,191.4a28.1,28.1,0,0,1-11.9,2.4,26.78,26.78,0,0,1-10.4-2,24,24,0,0,1-8.1-5.6,25.49,25.49,0,0,1-5.3-8.5,29.2,29.2,0,0,1-1.9-10.8v-.1a27.62,27.62,0,0,1,1.9-10.5,28.9,28.9,0,0,1,5.3-8.6,26.4,26.4,0,0,1,8.1-5.9,24.63,24.63,0,0,1,10.3-2.1,36.36,36.36,0,0,1,6,.5,24.35,24.35,0,0,1,5,1.4,28.94,28.94,0,0,1,4.3,2.2,27.9,27.9,0,0,1,3.9,3.1l-6.8,8.8a26.89,26.89,0,0,0-2.8-2.2,27.55,27.55,0,0,0-2.9-1.7,17,17,0,0,0-3.2-1,22.15,22.15,0,0,0-3.8-.4,11.44,11.44,0,0,0-5.5,1.3,17,17,0,0,0-4.5,3.5,15.75,15.75,0,0,0-3,5.2,19.11,19.11,0,0,0-1.1,6.4v.1a20.91,20.91,0,0,0,1.1,6.7,14.83,14.83,0,0,0,3.1,5.3,13.47,13.47,0,0,0,4.7,3.5,14.61,14.61,0,0,0,6,1.2,16,16,0,0,0,10.1-3.2v-7.6h-10.8v-10h21.2v22.8A42.22,42.22,0,0,1,1081.9,191.4Z"/></g><rect class="cls-9" x="1949.92" y="131.47" width="45.8" height="257" transform="translate(-16.64 219.39) rotate(-6.34)"/><rect class="cls-1" x="1904.5" y="99.5" width="34" height="295"/><rect class="cls-1" x="1878.5" y="157.5" width="15" height="237"/><rect class="cls-1" x="1838.5" y="199.5" width="32" height="195"/><rect class="cls-1" x="1773.5" y="145.5" width="58" height="249"/><rect class="cls-1" x="1751.5" y="167.5" width="17" height="227"/><rect class="cls-1" x="1713.5" y="69.5" width="31" height="325"/></svg>