<?xml version="1.0" encoding="utf-8"?>
<!-- Generator: Adobe Illustrator 25.4.1, SVG Export Plug-In . SVG Version: 6.00 Build 0)  -->
<svg version="1.1" id="Layer_1" xmlns="http://www.w3.org/2000/svg" xmlns:xlink="http://www.w3.org/1999/xlink" x="0px" y="0px"
	 viewBox="0 0 2040 431" style="enable-background:new 0 0 2040 431;" xml:space="preserve">
<style type="text/css">
	.st0{stroke:#000000;stroke-miterlimit:10;}
	.st1{stroke:#000000;stroke-width:1.0008;stroke-miterlimit:10.008;}
	.st2{stroke:#000000;stroke-width:0.88;stroke-miterlimit:10;}
	.st3{stroke:#000000;stroke-width:1.46;stroke-miterlimit:10;}
	.st4{enable-background:new    ;}
	.st5{fill:#FFFFFF;}
	.st6{stroke:#000000;stroke-width:0.9961;stroke-miterlimit:9.9609;}
</style>
<rect x="25.5" y="157.5" class="st0" width="220" height="59"/>
<rect x="25.7" y="224.6" transform="matrix(0.9992 -3.996804e-02 3.996804e-02 0.9992 -9.3084 5.6135)" class="st1" width="220.2" height="22"/>
<rect x="116.5" y="171.5" transform="matrix(4.623474e-02 -0.9989 0.9989 4.623474e-02 -151.948 403.8441)" class="st0" width="38" height="220"/>
<rect x="24.5" y="312.5" class="st0" width="220" height="78"/>
<rect x="144.5" y="209.5" transform="matrix(4.623474e-02 -0.9989 0.9989 4.623474e-02 42.5605 525.5587)" class="st0" width="304" height="62"/>
<rect x="336.5" y="37.5" class="st0" width="58" height="355"/>
<rect x="1653.5" y="136.5" class="st0" width="46" height="258"/>
<rect x="1608.5" y="99.5" class="st0" width="34" height="295"/>
<rect x="1582.5" y="157.5" class="st0" width="15" height="237"/>
<rect x="1542.5" y="199.5" class="st0" width="32" height="195"/>
<rect x="1477.5" y="145.5" class="st0" width="58" height="249"/>
<rect x="1455.5" y="167.5" class="st0" width="17" height="227"/>
<rect x="1429.5" y="69.5" transform="matrix(0.9992 -3.943421e-02 3.943421e-02 0.9992 -8.0315 56.8278)" class="st0" width="14" height="325"/>
<rect x="1368.5" y="14.5" class="st0" width="46" height="380"/>
<rect x="1326.5" y="70.5" class="st0" width="31" height="325"/>
<rect x="410.5" y="126.5" class="st2" width="696" height="82"/>
<rect x="410.2" y="217" class="st3" width="911" height="174"/>
<g>
	<g class="st4">
		<path class="st5" d="M431.2,359.2V245h23.4v91.5h53v22.7H431.2z"/>
		<path class="st5" d="M629,325c-2.8,7.1-6.8,13.4-11.8,18.8c-5,5.4-11,9.6-17.9,12.7c-6.9,3.1-14.5,4.7-22.7,4.7
			s-15.7-1.6-22.6-4.7c-6.9-3.1-12.8-7.3-17.8-12.6c-5-5.3-8.9-11.5-11.7-18.6c-2.8-7.1-4.2-14.8-4.2-22.9v-0.3
			c0-8.2,1.4-15.8,4.2-22.9c2.8-7.1,6.8-13.4,11.8-18.8c5-5.4,11-9.6,17.9-12.7c6.9-3.1,14.5-4.7,22.7-4.7s15.7,1.6,22.6,4.7
			c6.9,3.1,12.8,7.3,17.8,12.6c5,5.3,8.9,11.5,11.7,18.6c2.8,7.1,4.2,14.8,4.2,22.9v0.3C633.3,310.3,631.9,317.9,629,325z
			 M608.9,302.1c0-4.9-0.8-9.5-2.4-13.9c-1.6-4.3-3.8-8.2-6.7-11.4s-6.3-5.8-10.2-7.7c-3.9-1.9-8.2-2.9-12.9-2.9
			c-4.8,0-9.1,0.9-13,2.8c-3.9,1.9-7.2,4.4-10,7.7c-2.8,3.3-5,7-6.5,11.3c-1.6,4.3-2.4,8.9-2.4,13.8v0.3c0,4.9,0.8,9.5,2.4,13.9
			c1.6,4.4,3.8,8.2,6.7,11.4s6.3,5.8,10.2,7.8c3.9,1.9,8.2,2.9,13,2.9c4.7,0,9-0.9,12.9-2.8c3.9-1.8,7.3-4.4,10.1-7.7
			c2.8-3.3,5-7,6.5-11.3c1.6-4.3,2.4-8.9,2.4-13.8V302.1z"/>
		<path class="st5" d="M741.7,332.1c-2.2,6.4-5.3,11.8-9.3,16.1c-4,4.3-9,7.5-14.7,9.6s-12.2,3.2-19.3,3.2
			c-14.3,0-25.5-4.2-33.7-12.7c-8.2-8.5-12.3-21.2-12.3-38V245h23.4v64.6c0,9.4,2,16.4,6.1,21.1c4,4.7,9.7,7.1,16.8,7.1
			c7.2,0,12.8-2.3,16.8-6.9c4-4.6,6.1-11.4,6.1-20.6V245H745v64.4C745,318.2,743.9,325.7,741.7,332.1z"/>
		<path class="st5" d="M769.8,359.2V245h23.4v114.2H769.8z"/>
		<path class="st5" d="M893.7,340.5c-1.9,4.4-4.6,8.1-8,11.1c-3.4,3-7.5,5.3-12.2,6.9c-4.7,1.6-10,2.4-15.8,2.4
			c-8.1,0-16-1.5-23.8-4.5c-7.8-3-14.9-7.6-21.2-13.8l13.8-17.8c4.9,4.2,9.8,7.6,14.9,10.1c5.1,2.5,10.7,3.8,16.8,3.8
			c4.9,0,8.6-1,11.3-2.9c2.7-1.9,4-4.5,4-7.9v-0.3c0-1.6-0.3-3.1-0.8-4.3c-0.6-1.2-1.6-2.4-3.2-3.5c-1.6-1.1-3.8-2.2-6.5-3.3
			c-2.8-1.1-6.4-2.2-10.9-3.4c-5.4-1.4-10.2-3-14.6-4.7c-4.4-1.7-8.1-3.9-11.1-6.4c-3-2.6-5.4-5.7-7.1-9.5
			c-1.7-3.8-2.5-8.5-2.5-14.2v-0.3c0-5.2,0.9-9.9,2.7-14.1c1.8-4.2,4.3-7.8,7.6-10.8c3.3-3,7.2-5.4,11.7-7c4.5-1.6,9.5-2.4,15-2.4
			c7.8,0,14.9,1.3,21.5,3.8c6.5,2.5,12.5,6.1,18,10.8l-12.1,18.9c-4.8-3.5-9.4-6.2-14-8.2c-4.6-2-9.1-3-13.7-3c-4.6,0-8,1-10.2,2.9
			c-2.3,1.9-3.4,4.3-3.4,7.1v0.3c0,1.9,0.3,3.5,1,4.8c0.7,1.4,1.8,2.6,3.6,3.7c1.7,1.1,4.1,2.1,7.1,3.1c3,1,6.8,2.1,11.3,3.4
			c5.4,1.5,10.2,3.2,14.4,5.1c4.2,1.9,7.8,4.2,10.6,6.9c2.9,2.7,5.1,5.8,6.5,9.4s2.2,7.9,2.2,12.9v0.3
			C896.5,331.1,895.6,336.1,893.7,340.5z"/>
		<path class="st5" d="M917.9,359.2V245h23.4v114.2H917.9z"/>
		<path class="st5" d="M1046.9,359.2l-9.7-25.6h-44.9l-9.7,25.6h-23.8l45.5-115h21.5l45.5,115H1046.9z M1014.7,274.4l-14.1,37h28.2
			L1014.7,274.4z"/>
		<path class="st5" d="M1162.2,359.2l-51.4-72.6v72.6h-23.1V245h21.5l49.8,70.3V245h23.1v114.2H1162.2z"/>
		<path class="st5" d="M1286.6,359.2l-9.7-25.6H1232l-9.7,25.6h-23.8l45.5-115h21.5l45.5,115H1286.6z M1254.5,274.4l-14.1,37h28.2
			L1254.5,274.4z"/>
	</g>
</g>
<g class="st4">
	<path class="st5" d="M465.3,188.3c-1.3,1.2-2.8,2.1-4.4,3c-1.6,0.8-3.4,1.5-5.3,1.9c-1.9,0.4-4,0.6-6.4,0.6c-3.6,0-6.9-0.7-10-2.1
		c-3.1-1.4-5.7-3.3-8-5.7c-2.2-2.4-4-5.3-5.2-8.6c-1.3-3.3-1.9-6.8-1.9-10.6v-0.1c0-3.8,0.6-7.3,1.9-10.5c1.3-3.3,3-6.1,5.2-8.6
		c2.2-2.5,4.9-4.4,8-5.9c3.1-1.4,6.6-2.1,10.3-2.1c2.3,0,4.4,0.2,6.2,0.6c1.9,0.4,3.6,1,5.1,1.6c1.5,0.7,3,1.6,4.3,2.5
		c1.3,1,2.5,2.1,3.6,3.3l-6.8,8.5c-1.9-1.8-3.8-3.3-5.8-4.3c-2-1.1-4.2-1.6-6.7-1.6c-2,0-3.9,0.4-5.7,1.3c-1.7,0.9-3.2,2-4.5,3.5
		s-2.2,3.2-2.9,5.2c-0.7,2-1,4.1-1,6.3v0.1c0,2.2,0.3,4.4,1,6.4c0.7,2,1.7,3.8,2.9,5.2c1.2,1.5,2.7,2.7,4.5,3.6
		c1.7,0.9,3.7,1.3,5.8,1.3c2.8,0,5.1-0.5,7.1-1.6c1.9-1.1,3.8-2.6,5.8-4.5l6.8,7.4C467.9,185.9,466.6,187.2,465.3,188.3z"/>
	<path class="st5" d="M508.3,192.9v-21.1h-19.8v21.1h-10.7v-52.5h10.7v20.8h19.8v-20.8H519v52.5H508.3z"/>
	<path class="st5" d="M531.3,192.9v-52.5H542v52.5H531.3z"/>
	<path class="st5" d="M554.2,192.9v-52.5h10.7v42.1h24.3v10.4H554.2z"/>
	<path class="st5" d="M640.5,177c-1.3,3.2-3,6-5.3,8.3c-2.3,2.4-5,4.2-8.2,5.6c-3.2,1.4-6.7,2-10.5,2h-19v-52.5h19
		c3.8,0,7.3,0.7,10.5,2c3.2,1.3,5.9,3.2,8.2,5.5c2.3,2.4,4.1,5.1,5.3,8.3c1.3,3.2,1.9,6.6,1.9,10.3v0.1
		C642.4,170.3,641.7,173.8,640.5,177z M631.1,166.6c0-2.3-0.4-4.4-1.1-6.4c-0.7-2-1.7-3.6-3-5c-1.3-1.4-2.8-2.5-4.6-3.3
		c-1.8-0.8-3.8-1.2-6-1.2h-8.3v31.7h8.3c2.2,0,4.2-0.4,6-1.1s3.4-1.8,4.6-3.2c1.3-1.4,2.3-3,3-5c0.7-1.9,1.1-4,1.1-6.4V166.6z"/>
	<path class="st5" d="M681.6,192.9l-10.5-16.8h-8.4v16.8h-10.7v-52.5h22.3c5.8,0,10.3,1.5,13.6,4.6c3.2,3.1,4.8,7.3,4.8,12.8v0.1
		c0,4.3-1,7.7-2.9,10.4c-1.9,2.7-4.5,4.6-7.6,5.9l11.9,18.8H681.6z M681.8,158.3c0-2.5-0.7-4.4-2.2-5.6c-1.5-1.2-3.6-1.9-6.2-1.9
		h-10.7v15.1h10.9c2.7,0,4.7-0.7,6.1-2c1.4-1.4,2.1-3.1,2.1-5.4V158.3z"/>
	<path class="st5" d="M702.3,192.9v-52.5h36.8v10.3h-26.2v10.6h23v10.3h-23v11h26.5v10.3H702.3z"/>
	<path class="st5" d="M783.3,192.9l-23.6-33.4v33.4h-10.6v-52.5h9.9l22.9,32.3v-32.3h10.6v52.5H783.3z"/>
	<path class="st5" d="M807.2,152.4H803v-12h11.2v10.1c0,5-1.1,8.5-3.3,10.7c-2.2,2.2-5.4,3.3-9.6,3.3l-0.9-4.7
		C805.3,159.3,807.6,156.8,807.2,152.4z"/>
	<path class="st5" d="M858.1,184.3c-0.9,2-2.1,3.7-3.7,5.1c-1.6,1.4-3.4,2.4-5.6,3.1c-2.2,0.7-4.6,1.1-7.2,1.1
		c-3.7,0-7.4-0.7-11-2.1c-3.6-1.4-6.8-3.5-9.8-6.3l6.3-8.2c2.2,2,4.5,3.5,6.9,4.7c2.3,1.2,4.9,1.7,7.7,1.7c2.2,0,4-0.4,5.2-1.3
		c1.2-0.9,1.8-2.1,1.8-3.6v-0.1c0-0.8-0.1-1.4-0.4-2c-0.3-0.6-0.7-1.1-1.5-1.6c-0.7-0.5-1.7-1-3-1.5c-1.3-0.5-2.9-1-5-1.6
		c-2.5-0.6-4.7-1.4-6.7-2.2c-2-0.8-3.7-1.8-5.1-3c-1.4-1.2-2.5-2.6-3.3-4.4c-0.8-1.7-1.2-3.9-1.2-6.5v-0.1c0-2.4,0.4-4.6,1.2-6.5
		c0.8-1.9,2-3.6,3.5-5c1.5-1.4,3.3-2.5,5.4-3.2c2.1-0.8,4.4-1.1,6.9-1.1c3.6,0,6.9,0.6,9.9,1.7c3,1.2,5.8,2.8,8.3,4.9l-5.6,8.7
		c-2.2-1.6-4.3-2.9-6.4-3.8c-2.1-0.9-4.2-1.4-6.3-1.4c-2.1,0-3.7,0.4-4.7,1.3c-1,0.9-1.6,2-1.6,3.3v0.1c0,0.9,0.2,1.6,0.5,2.2
		c0.3,0.6,0.8,1.2,1.6,1.7c0.8,0.5,1.9,1,3.3,1.4s3.1,1,5.2,1.6c2.5,0.7,4.7,1.5,6.6,2.4c1.9,0.9,3.6,1.9,4.9,3.1
		c1.3,1.2,2.3,2.7,3,4.3s1,3.6,1,5.9v0.1C859.4,180,859,182.3,858.1,184.3z"/>
	<path class="st5" d="M943.3,193.3H934l-11-34.4l-11,34.4h-9.3l-16.7-52.9h11.5l10.1,35.5l11-35.7h9.2l11,35.7l10.1-35.5H960
		L943.3,193.3z"/>
	<path class="st5" d="M968.4,192.9v-52.5h10.7v52.5H968.4z"/>
	<path class="st5" d="M1025.6,192.9l-23.6-33.4v33.4h-10.6v-52.5h9.9l22.9,32.3v-32.3h10.6v52.5H1025.6z"/>
	<path class="st5" d="M1081.9,191.4c-3.5,1.6-7.4,2.4-11.9,2.4c-3.8,0-7.3-0.7-10.4-2s-5.8-3.2-8.1-5.6c-2.3-2.4-4-5.2-5.3-8.5
		c-1.3-3.3-1.9-6.9-1.9-10.8v-0.1c0-3.8,0.6-7.3,1.9-10.5c1.3-3.3,3.1-6.1,5.3-8.6c2.3-2.5,5-4.4,8.1-5.9c3.1-1.4,6.5-2.1,10.3-2.1
		c2.2,0,4.2,0.2,6,0.5c1.8,0.3,3.5,0.8,5,1.4c1.5,0.6,3,1.4,4.3,2.2c1.3,0.9,2.7,1.9,3.9,3.1l-6.8,8.8c-0.9-0.8-1.9-1.6-2.8-2.2
		c-0.9-0.6-1.9-1.2-2.9-1.7c-1-0.4-2.1-0.8-3.2-1c-1.2-0.2-2.4-0.4-3.8-0.4c-2,0-3.8,0.4-5.5,1.3c-1.7,0.9-3.2,2.1-4.5,3.5
		c-1.3,1.5-2.3,3.2-3,5.2c-0.7,2-1.1,4.1-1.1,6.4v0.1c0,2.4,0.4,4.6,1.1,6.7c0.7,2,1.7,3.8,3.1,5.3c1.3,1.5,2.9,2.7,4.7,3.5
		c1.8,0.8,3.8,1.2,6,1.2c4,0,7.4-1.1,10.1-3.2v-7.6h-10.8v-10h21.2v22.8C1088.3,187.8,1085.4,189.7,1081.9,191.4z"/>
</g>
<rect x="1949.9" y="131.4" transform="matrix(0.9939 -0.1104 0.1104 0.9939 -16.6371 219.4513)" class="st6" width="45.8" height="257"/>
<rect x="1904.5" y="99.5" class="st0" width="34" height="295"/>
<rect x="1878.5" y="157.5" class="st0" width="15" height="237"/>
<rect x="1838.5" y="199.5" class="st0" width="32" height="195"/>
<rect x="1773.5" y="145.5" class="st0" width="58" height="249"/>
<rect x="1751.5" y="167.5" class="st0" width="17" height="227"/>
<rect x="1713.5" y="69.5" class="st0" width="31" height="325"/>
</svg>
